# xmcd CD database file
#
# Track frame offsets:
#	150
#	22803
#	41358
#	62257
#	75501
#	104591
#	120763
#	140066
#	165055
#	185001
#	200966
#	224429
#
# Disc length: 3289 seconds
#
# Revision: 0
# Processed by: cddbd v1.5PL3 Copyright (c) Steve Scherf et al.
# Submitted via: CDex 1.51
#
DISCID=990cd70c
DTITLE=Diana Krall - All For You
DYEAR=1996
DGENRE=Jazz
TTITLE0=I'm An Errand Girl For Rhythm
TTITLE1=Gee Baby, Ain't I Good To You
TTITLE2=You Call It Madness
TTITLE3=Frim Fram Sauce
TTITLE4=Boulevard Of Broken Dreams
TTITLE5=Baby Baby All The Time
TTITLE6=Hit That Jive Jack
TTITLE7=You're Looking At Me
TTITLE8=I'm Thru With Love
TTITLE9='Deed I Do
TTITLE10=A Blossom Fell
TTITLE11=If I Had You
EXTD=YEAR: 1996
EXTT0=
EXTT1=
EXTT2=
EXTT3=
EXTT4=
EXTT5=
EXTT6=
EXTT7=
EXTT8=
EXTT9=
EXTT10=
EXTT11=
PLAYORDER=
